PathFileType	4	(X/Y/Z)	C:\Users\willi\Documents\UniDataLokal\DATA_Hans_PhD\TD03\3DGAIT_B_W4\marker_experimental.trc
DataRate	CameraRate	NumFrames	NumMarkers	Units	OrigDataRate	OrigDataStartFrame	OrigNumFrames
100.000000	100.000000	3	137	mm	100.000000	105	210
Frame#	Time	LFEO			LFEA			LFEL			LFEP			LFOO			LFOA			LFOL			LFOP			LTIO			LTIA			LTIL			LTIP			LTOO			LTOA			LTOL			LTOP			PELO			PELA			PELL			PELP			RFEO			RFEA			RFEL			RFEP			RFOO			RFOA			RFOL			RFOP			RTIO			RTIA			RTIL			RTIP			RTOO			RTOA			RTOL			RTOP			TRXO			TRXA			TRXL			TRXP			C7			T10			CLAV			STRN			RBAK			LASI			RASI			LPSI			RPSI			LTHI			LKNE			LMKNE			LPAT			LTUB			LTIB			LANK			LMMA			LHEE			LTOE			LD5M			RTHI			RKNE			RMKNE			RPAT			RTUB			RTIB			RANK			RMMA			RHEE			RTOE			RD5M			LTH1			LTH2			LTH3			LTB1			LTB2			LTB3			LTB4			LTB5			RTH1			RTH2			RTH3			RTB1			RTB2			RTB3			RTB4			RTB5			LIC			RIC			CentreOfMass			CentreOfMassFloor			LHipAngles			LKneeAngles			LAnkleAngles			LAbsAnkleAngle			RHipAngles			RKneeAngles			RAnkleAngles			RAbsAnkleAngle			LSpineAngles			RSpineAngles			LThoraxAngles			RThoraxAngles			LPelvisAngles			RPelvisAngles			LFootProgressAngles			RFootProgressAngles			LAnklePower			RAnklePower			LKneePower			RKneePower			LHipPower			RHipPower			LWaistPower			RWaistPower			LGroundReactionForce			RGroundReactionForce			LNormalisedGRF			RNormalisedGRF			LAnkleForce			RAnkleForce			LKneeForce			RKneeForce			LHipForce			RHipForce			LWaistForce			RWaistForce			LGroundReactionMoment			RGroundReactionMoment			LAnkleMoment			RAnkleMoment			LKneeMoment			RKneeMoment			LHipMoment			RHipMoment			LWaistMoment			RWaistMoment			
		X1	Y1	Z1	X2	Y2	Z2	X3	Y3	Z3	X4	Y4	Z4	X5	Y5	Z5	X6	Y6	Z6	X7	Y7	Z7	X8	Y8	Z8	X9	Y9	Z9	X10	Y10	Z10	X11	Y11	Z11	X12	Y12	Z12	X13	Y13	Z13	X14	Y14	Z14	X15	Y15	Z15	X16	Y16	Z16	X17	Y17	Z17	X18	Y18	Z18	X19	Y19	Z19	X20	Y20	Z20	X21	Y21	Z21	X22	Y22	Z22	X23	Y23	Z23	X24	Y24	Z24	X25	Y25	Z25	X26	Y26	Z26	X27	Y27	Z27	X28	Y28	Z28	X29	Y29	Z29	X30	Y30	Z30	X31	Y31	Z31	X32	Y32	Z32	X33	Y33	Z33	X34	Y34	Z34	X35	Y35	Z35	X36	Y36	Z36	X37	Y37	Z37	X38	Y38	Z38	X39	Y39	Z39	X40	Y40	Z40	X41	Y41	Z41	X42	Y42	Z42	X43	Y43	Z43	X44	Y44	Z44	X45	Y45	Z45	X46	Y46	Z46	X47	Y47	Z47	X48	Y48	Z48	X49	Y49	Z49	X50	Y50	Z50	X51	Y51	Z51	X52	Y52	Z52	X53	Y53	Z53	X54	Y54	Z54	X55	Y55	Z55	X56	Y56	Z56	X57	Y57	Z57	X58	Y58	Z58	X59	Y59	Z59	X60	Y60	Z60	X61	Y61	Z61	X62	Y62	Z62	X63	Y63	Z63	X64	Y64	Z64	X65	Y65	Z65	X66	Y66	Z66	X67	Y67	Z67	X68	Y68	Z68	X69	Y69	Z69	X70	Y70	Z70	X71	Y71	Z71	X72	Y72	Z72	X73	Y73	Z73	X74	Y74	Z74	X75	Y75	Z75	X76	Y76	Z76	X77	Y77	Z77	X78	Y78	Z78	X79	Y79	Z79	X80	Y80	Z80	X81	Y81	Z81	X82	Y82	Z82	X83	Y83	Z83	X84	Y84	Z84	X85	Y85	Z85	X86	Y86	Z86	X87	Y87	Z87	X88	Y88	Z88	X89	Y89	Z89	X90	Y90	Z90	X91	Y91	Z91	X92	Y92	Z92	X93	Y93	Z93	X94	Y94	Z94	X95	Y95	Z95	X96	Y96	Z96	X97	Y97	Z97	X98	Y98	Z98	X99	Y99	Z99	X100	Y100	Z100	X101	Y101	Z101	X102	Y102	Z102	X103	Y103	Z103	X104	Y104	Z104	X105	Y105	Z105	X106	Y106	Z106	X107	Y107	Z107	X108	Y108	Z108	X109	Y109	Z109	X110	Y110	Z110	X111	Y111	Z111	X112	Y112	Z112	X113	Y113	Z113	X114	Y114	Z114	X115	Y115	Z115	X116	Y116	Z116	X117	Y117	Z117	X118	Y118	Z118	X119	Y119	Z119	X120	Y120	Z120	X121	Y121	Z121	X122	Y122	Z122	X123	Y123	Z123	X124	Y124	Z124	X125	Y125	Z125	X126	Y126	Z126	X127	Y127	Z127	X128	Y128	Z128	X129	Y129	Z129	X130	Y130	Z130	X131	Y131	Z131	X132	Y132	Z132	X133	Y133	Z133	X134	Y134	Z134	X135	Y135	Z135	X136	Y136	Z136	X137	Y137	Z137	

106	1.05	-171.4886474609375	468.3845520019531	212.1118011474609	179.3701171875	465.7933959960938	212.8288116455078	-171.0100860595703	436.4959716796875	-137.3048858642578	-168.8430633544921	817.7918701171875	180.2277069091797	-112.0228576660156	62.16587066650391	182.1805877685547	-111.1124725341797	256.3115844726562	184.4250030517578	-137.5977630615234	64.51068115234376	-10.2742156982422	-304.4898071289062	62.77264785766604	207.7644805908203	-246.9618682861328	75.08078765869142	213.0193786621093	95.94013977050781	8.951171874999995	70.76947021484375	-386.8123779296875	101.1116256713867	-136.2000122070313	-175.8985137939453	445.4039611816406	212.1648254394531	-47.86721801757812	61.9636116027832	173.6526336669922	-47.56375122070313	126.6788482666016	174.4007873535156	-56.39217376708984	62.74523162841797	109.5010452270508	-112.0228652954102	62.16586685180665	182.1805877685547	-163.8357238769531	817.6035766601562	246.773681640625	-31.21044921874996	806.458251953125	236.7625885009766	-173.8503723144531	817.9803466796875	113.6817169189453	-152.6935882568359	950.6055908203125	246.3117980957031	-29.93845939636229	502.0719299316406	345.2477722167969	285.5363464355469	626.37939453125	299.4577026367188	-60.54018402099607	455.3849792480469	7.672180175781246	-158.828384399414	817.4152221679688	313.3196411132812	-82.606559753418	76.38571166992188	401.4717102050781	2.235450744628896	249.85107421875	412.961181640625	2.075927734374988	46.31374359130859	230.1680145263672	-234.4325256347657	156.5471496582032	312.3457336425781	-179.3778076171875	142.6383514404297	327.7848815917969	122.4836120605468	9.498260498046868	484.9771118164062	-28.40974426269531	95.88051605224609	-1.727447509765627	-39.21958923339843	479.748779296875	344.1632385253906	-31.99792289733889	49.66524124145508	431.1803588867188	-3.7172374725342	107.4870147705078	435.0101623535156	-3.770458221435568	39.64124298095703	374.0791320800781	-82.60656738281253	76.38571166992188	401.4717407226562	-150.0509033203124	1287.898315429688	258.3523254394531	nan	nan	nan	nan	nan	nan	nan	nan	nan	-255.9134826660156	1354.631103515625	252.5659637451172	-287.5480041503906	1051.50146484375	250.7092132568359	-145.5636138916015	1288.049438476562	258.6545715332031	-98.45770263671869	1123.5654296875	264.8221435546875	-289.8094787597656	1262.252075195312	371.3938293457031	-124.9051818847656	903.2930908203125	135.5326385498047	-108.6606826782226	902.6819458007812	351.4170227050781	-291.3050842285156	916.8706665039062	210.1705932617187	-284.7954101562499	917.8624877929688	294.7948303222656	-170.5065307617187	566.3792724609375	85.66314697265624	-171.4027099609375	462.6588134765625	149.3725738525391	-193.8075866699219	454.0180358886719	268.1934204101562	-130.8614044189453	447.7823791503906	207.0274353027344	-150.2378387451172	396.2653198242188	203.2246398925781	-260.9345092773438	214.5031280517578	114.522346496582	-261.05517578125	77.7040252685547	177.8270721435547	-240.5526885986328	82.9938430786133	256.9533081054688	-318.52392578125	34.34062194824221	214.1551513671875	-115.9520111083985	32.21060180664063	185.7018890380859	-150.3086090087891	10.73317813873292	139.9916381835938	-39.33759307861327	565.9674682617188	453.9505615234375	-24.12505722045898	510.9409790039062	409.3768920898438	-0.6705653667449812	501.6916809082031	276.3294677734375	63.18450546264649	495.5915222167969	359.0837097167969	26.61301803588868	424.0555114746094	366.1864624023438	-165.7052917480469	273.2680358886719	412.1709899902344	-194.8689880371094	147.436279296875	361.5968933105469	-139.2906494140625	147.0039978027344	298.0919494628906	-239.6279754638672	131.9818115234375	299.8860778808594	-86.37109375000003	57.06555175781251	391.4442138671875	-127.5093383789063	58.50998687744141	422.3224182128906	-259.6170959472656	625.011962890625	138.4778289794922	-221.1031341552734	578.7125854492188	117.4804306030273	-252.5007629394531	530.9356689453125	151.0993957519531	-186.9391479492187	279.3294372558594	222.762939453125	-191.7920837402344	230.5923614501953	175.9182891845703	-205.1853179931641	187.8039245605469	227.7492523193359	-189.6362609863281	424.1770629882812	143.9930877685547	-213.8036346435547	422.7095336914062	264.0100402832031	-113.7639923095703	628.6792602539062	413.0058288574219	-45.34999084472656	610.5726318359375	417.7861633300781	-56.78491592407226	542.3733520507812	410.1856384277344	-17.07102584838867	350.9572143554688	347.0329284667969	-66.74866485595705	313.4898376464844	391.79736328125	-71.3690185546875	267.6377868652344	337.7087707519531	-30.96869659423828	482.2544555664062	404.7381591796875	-9.233009338378896	459.732177734375	281.4815368652344	-202.2942199707031	976.0403442382812	103.0175628662109	-188.9835815429687	981.285400390625	392.3908996582031	-141.6161346435547	849.4780883789062	262.5054931640625	-141.6161346435547	8.671487299942492e-15	262.5054931640625	-5.328197479248047	4.4405517578125	-3.965033769607544	4.976199150085448	-23.22504043579102	-10.47924518585205	3.346469879150392	14.23068428039551	-10.94509696960449	6.493862223480887e-16	0	-10.60528182983398	7.11819648742676	3.772758722305297	-26.5979175567627	-11.79334831237793	-27.27121734619141	-44.22352981567383	-0.7394199371337894	-2.188043355941772	3.476605892181396	-2.127253083047322e-16	0	3.47406792640686	0.1226358488202086	-8.188320159912109	6.690573215484619	-0.1226358488202094	8.188320159912109	6.690573215484619	0.5278927087783815	3.851425409317017	1.89498770236969	-0.5278927087783817	-3.851425409317017	1.89498770236969	0.1982817202806473	-4.301660060882568	-4.788724899291992	-0.1982817202806467	4.301660060882568	-4.788724899291992	0.6681697368621766	-7.571674346923828	89.81938171386719	-3.837132453918463	-27.43446922302246	62.16674423217773	-1.855587553994356e-17	-0.3030404448509216	-1.136219679268427e-33	1.308307180337957e-18	0.02136627770960331	8.011071003511889e-35	6.746793058380844e-18	0.1101834923028946	4.131219261727841e-34	3.43391068038463e-18	0.05608001723885536	2.102663861645474e-34	-7.180789974735173e-18	-0.1172711998224258	-4.396965728954417e-34	6.024309473240992e-18	0.09838443994522095	3.688825656738829e-34	2.921383395775062e-18	0.04770981147885323	1.788831412359078e-34	2.921383395775062e-18	0.04770981147885323	1.788831412359078e-34	0.08635380119085358	7.969527721405029	0.3939788937568665	nan	nan	nan	4.016094684600835	81.23881530761719	0.8802630305290224	nan	nan	nan	-0.3051901757717128	-0.01027665287256239	-7.830730438232422	0.0601968690752983	-0.01782441325485707	0.186171293258667	0.1461873203516003	-7.255124092102051	-1.363431215286255	0.1417575776576996	0.4937650561332703	0.08820559084415437	-0.9087779521942143	-6.385878086090088	-0.08698958158493048	0.2224624603986741	1.105261445045471	-0.2267261147499084	-0.05015300959348702	-4.116477012634277	-0.2104150950908661	-0.05015300959348702	-4.116477012634277	-0.2104150950908661	257.6740112304687	-45.87741851806642	641.9470825195312	nan	nan	nan	26.55576133728029	26.09418869018555	-370.6480712890625	-2.69965420377759e-15	11.33390045166016	20.05789756774902	-9.852081298828111	16.78739738464355	-195.2326202392578	-34.4842414855957	11.00695705413819	-43.04913711547852	-419.2493286132812	-14.17571163177488	176.5845794677734	-97.16399383544922	-24.12410354614257	52.94404602050781	168.0870971679687	43.16702651977538	302.664306640625	-168.0870971679688	-43.16702651977538	302.664306640625	
107	1.06	-167.6957702636718	467.6034240722656	211.7926788330078	182.9493103027344	459.5961303710938	209.6256713867188	-170.5765838623047	435.9820251464844	-137.5102996826172	-159.9167327880859	816.8265380859375	180.1143798828125	-111.7594833374024	62.0116195678711	181.9785308837891	-110.5782089233398	256.1509704589844	184.6096496582031	-137.4714508056641	64.77600860595705	-10.45239257812501	-304.2066345214844	62.83391952514651	207.7044982910156	-246.6579132080078	75.05188751220705	212.9418182373047	94.69944763183594	5.96488189697265	68.56986999511719	-388.3925170898438	102.5424041748047	-135.334945678711	-172.3102722167968	444.6630249023438	211.8598175048828	-47.61041641235352	61.73750305175781	173.4031829833984	-47.21665954589844	126.4506301879883	174.2802276611328	-56.18107986450195	62.65896987915039	109.2595367431641	-111.7594909667969	62.01160430908204	181.978515625	-154.0868530273437	816.7649536132812	246.5935516357422	-21.59997558593746	805.5444946289062	234.9647674560547	-165.746597290039	816.8880615234375	113.6351470947265	-142.8985900878906	949.7611083984375	245.7355651855469	-16.81735801696776	501.9829406738281	343.8807678222656	296.7090454101563	627.3319091796875	286.7557373046875	-58.03946685791013	451.8517150878906	7.633758544921871	-148.2569885253906	816.703369140625	313.07275390625	-45.20519638061525	74.36734008789062	401.935791015625	28.36711502075194	253.0352020263672	411.1724548339844	39.4988670349121	48.37758636474609	229.9760131835938	-202.789291381836	143.8132934570312	313.8169250488281	-146.7971801757813	133.6157073974609	328.7747192382812	164.6944274902343	17.35964965820311	483.50048828125	3.495162963867193	94.20645141601562	-3.402435302734375	-24.86382293701171	479.1790161132812	342.9456481933594	7.322816371917702	51.21868515014648	431.3087158203125	31.84691619873045	110.7746429443359	434.3876342773438	35.5575256347656	42.55545806884766	373.9888000488281	-45.20520019531251	74.36733245849609	401.9357604980469	-139.3736572265624	1287.194946289062	257.8464660644531	nan	nan	nan	nan	nan	nan	nan	nan	nan	-245.0044555664062	1354.130981445312	251.9497680664062	-277.3610229492187	1050.985961914062	251.0095825195312	-134.8846282958984	1287.337158203125	258.1265563964844	-87.9851455688476	1122.729858398438	263.5537414550781	-279.3842468261718	1261.7451171875	370.2560729980469	-116.5055770874023	902.222412109375	134.6625213623047	-97.58370971679685	902.0225830078125	350.4319458007812	-281.9478759765624	916.242919921875	211.8506927490234	-274.2006530761718	916.9259033203125	296.2091979980469	-166.2337188720703	565.8069458007812	85.4956817626953	-168.2132110595703	461.9236145019531	149.0513458251953	-189.9376068115234	453.6000671386719	268.0845947265625	-127.4083023071289	446.4158935546875	206.2900238037109	-147.4482879638672	395.4964294433594	202.7769470214844	-259.9597778320312	214.7177429199219	114.655517578125	-260.9435424804688	77.8227005004883	177.8385009765625	-240.4554748535157	83.08747863769533	256.9397277832031	-318.4696350097656	34.5950508117676	214.3541870117187	-115.9580917358399	32.13054656982423	185.4913482666016	-150.356201171875	10.5338010787964	139.8028564453125	-23.07132148742675	567.133544921875	452.5158386230469	-8.993122100830071	511.4981689453125	407.7027282714844	11.40247249603273	501.8190307617188	274.2027587890625	77.1629638671875	497.7786254882812	355.5061645507812	43.29035568237305	426.0580749511719	363.7031860351562	-139.4986724853516	265.113525390625	412.8848266601562	-162.1658020019532	137.6456146240234	362.7425842285156	-107.2694625854492	140.2908935546875	298.7599182128906	-206.4612884521485	119.1899185180664	301.4715270996094	-47.88518524169924	54.81618881225586	392.0546875	-88.89540100097659	53.83268356323243	423.3485107421875	-254.3711853027343	625.4317016601562	138.7239685058593	-216.5250854492187	578.6732788085938	117.5511932373047	-248.3672790527343	531.2744750976562	151.3088836669922	-184.7968597412109	278.9845581054688	222.4562835693359	-190.3845977783203	230.1973266601562	175.7413024902344	-204.0453338623047	187.4022369384766	227.7312316894531	-186.8224334716797	423.7611083984375	143.8759155273438	-210.2709197998047	422.4876708984375	264.0397644042969	-99.21267700195311	629.042724609375	412.8647155761719	-30.39920616149901	611.34619140625	416.0270080566406	-41.46287155151366	543.061767578125	409.3736267089844	3.628168344497681	351.0064086914062	345.5259094238281	-43.1983757019043	310.9536743164062	390.9862060546875	-45.95018386840821	264.7147216796875	337.0923156738281	-15.24953746795654	482.3460083007812	403.17138671875	4.31870222091676	459.8554992675781	279.5809326171875	-194.1077728271484	974.891357421875	102.9871444702148	-177.5324401855468	980.7106323242188	392.0514526367188	-130.7862548828125	848.2435913085938	261.9878845214844	-130.7862548828125	8.008348420735311e-15	261.9878845214844	-5.103402137756348	4.676215171813965	-3.097382068634034	4.999452114105224	-23.07502937316895	-10.10480117797852	3.440773963928224	14.50891876220703	-11.42016792297363	6.766969031650077e-16	0	-11.05129909515381	7.122819423675539	5.002755641937256	-26.9953784942627	-12.4688892364502	-28.78120422363281	-41.17889785766602	-0.7662776708602909	-2.302958250045776	2.85821008682251	-1.748734280985375e-16	0	2.855899810791016	0.2321930229663839	-8.606514930725098	6.587687492370605	-0.2321930229663848	8.606514930725098	6.587687492370605	0.5493379831314088	3.568566560745239	1.780812978744507	-0.549337983131409	-3.568566560745239	1.780812978744507	0.3683199286460876	-4.99848461151123	-4.808675765991211	-0.368319928646087	4.99848461151123	-4.808675765991211	0.7833452820777833	-7.613985061645508	89.75518035888672	-3.074663162231451	-27.098876953125	66.21732330322266	-2.107318138070912e-17	-0.3441511690616608	-1.290360206286852e-33	1.118291532052296e-18	0.0182630866765976	6.847560726207169e-35	5.918894267584186e-18	0.09666287899017334	3.624277459644295e-34	4.944472428624264e-18	0.08074936270713806	3.027616166593523e-34	-1.113905375531913e-17	-0.1819145530462265	-6.820703263490941e-34	5.589641918655197e-18	0.09128578007221222	3.422668542030478e-34	2.565261036480237e-18	0.04189389199018478	1.570769358651472e-34	2.565261036480237e-18	0.04189389199018478	1.570769358651472e-34	0.1185298189520841	8.072422981262207	0.4053725004196167	nan	nan	nan	4.132237434387212	82.28769683837891	1.208255052566529	nan	nan	nan	-0.3027906417846675	-0.02989533357322214	-7.934599876403809	0.05344742164015769	-0.01642469502985478	0.2048771977424622	0.1575689613819119	-7.347586154937744	-1.427507042884827	0.1321608573198319	0.5531613230705261	0.08643245697021486	-0.9491923451423649	-6.474729061126709	-0.1726270020008088	0.2069715708494188	1.159574866294861	-0.2709789872169495	-0.1510203182697298	-4.123909950256348	-0.2746202647686005	-0.1510203182697298	-4.123909950256348	-0.2746202647686005	269.0624999999999	-52.62707519531251	690.868896484375	nan	nan	nan	28.21289062500003	30.34142684936523	-416.8598327636719	-7.62747653434304e-16	8.595728874206543	21.05234336853027	-15.0995168685913	20.48746109008789	-173.8893890380859	-36.16441345214844	8.260662078857424	-42.57107543945312	-427.755615234375	-7.519186973571752	189.4876403808593	-93.24878692626953	-25.06006431579589	59.5602798461914	157.4999237060547	36.97483444213866	327.0302124023438	-157.4999237060547	-36.97483444213866	327.0302124023438	
108	1.07	-163.8275909423828	466.8000183105469	211.5484924316406	186.5531768798828	453.3383178710938	206.8772430419922	-169.6885833740234	435.4291381835938	-137.6666564941406	-150.8396606445312	815.8048706054688	179.9785308837891	-111.4951705932617	61.86557388305665	181.7812652587891	-110.0188903808594	255.9961395263672	184.8719635009766	-137.3569488525391	65.12542724609376	-10.62184143066407	-303.9202270507812	62.91679000854494	207.663818359375	-246.3489532470703	75.03555297851564	212.8838500976562	93.49931335449219	2.951110839843744	66.56744384765625	-389.76318359375	104.0601806640625	-134.5228576660157	-168.6507263183593	443.9026184082031	211.6265258789062	-47.35347747802734	61.51517105102539	173.1537475585938	-46.86139297485352	126.2253723144531	174.1839599609375	-55.97408676147461	62.60177230834961	109.0193634033203	-111.4951705932617	61.86557769775391	181.7812805175781	-144.2951354980468	815.7965087890625	246.3911895751953	-11.94593811035153	804.50634765625	233.34765625	-157.3841705322265	815.8132934570312	113.5658111572265	-133.0577545166015	948.786865234375	245.3006286621094	-4.136727333068838	501.3588562011719	342.4267883300781	307.6795043945313	627.5902099609375	275.8515014648438	-54.27595138549802	448.4831237792969	7.335449218749996	-137.7506561279297	815.7881469726562	312.8038635253906	-7.638708114624044	72.89527893066406	402.718994140625	54.31929779052733	256.0131530761719	409.7509765625	76.86254119873045	50.93309020996093	230.0991821289062	-170.2460174560547	131.2554321289062	315.6940002441406	-113.5666809082031	124.823844909668	330.148193359375	206.6400451660156	26.7804489135742	482.9794616699219	36.18913269042969	92.21507263183594	-4.533966064453123	-10.8870620727539	478.1317138671875	341.6693725585938	46.56373214721677	53.44191360473633	431.7273559570312	67.21637725830075	114.4812164306641	434.0713195800781	74.73081970214841	46.12115478515624	374.1874084472656	-7.638729095459005	72.895263671875	402.718994140625	-128.5964050292968	1286.294799804688	257.38623046875	nan	nan	nan	nan	nan	nan	nan	nan	nan	-234.1353454589843	1353.456787109375	251.4127349853515	-267.0969238281249	1050.34326171875	251.4036865234375	-124.1057434082031	1286.428955078125	257.6431274414062	-77.44073486328119	1121.701293945312	262.3567504882812	-268.8577575683593	1261.077758789062	369.1753845214844	-107.8842849731445	901.1429443359375	133.9668426513672	-86.63834381103513	901.11572265625	349.5673522949219	-272.4603576660156	915.4884643554688	213.5328979492187	-263.5346679687499	915.8502807617188	297.6177673339844	-161.7283477783203	565.2035522460938	85.42572021484374	-164.8805389404297	461.1640319824219	148.8099212646484	-185.9658508300781	453.1484985351562	268.0159301757812	-123.8295364379883	444.9500122070312	205.6479339599609	-144.6183929443359	394.6447448730469	202.4198608398438	-258.8983154296875	214.9539947509766	114.8030090332031	-260.8058776855469	77.96138763427736	177.8633270263672	-240.2985229492188	83.18975830078126	256.9535827636719	-318.40576171875	34.87713241577151	214.5619201660156	-115.9621047973633	32.05712890625001	185.2744293212891	-150.3904418945312	10.34185028076173	139.6342315673828	-7.78661394119262	567.5347290039062	450.8059997558594	5.367022514343268	511.3812561035156	405.9423522949219	23.0587501525879	501.3511352539062	271.9744262695312	90.29720306396484	499.2221374511719	351.8210754394531	59.22969818115235	427.5711669921875	361.1123352050781	-113.0233917236328	256.9722290039062	413.784912109375	-128.8227081298828	128.1457824707031	364.2431335449219	-74.9227294921875	133.6988677978516	299.7168273925781	-172.5042419433594	106.6165161132813	303.5375671386719	-9.273883819580099	53.21384048461914	392.947509765625	-49.9411544799805	49.97118377685547	424.7078857421875	-248.8974151611328	625.832763671875	139.0321350097656	-211.7573547363281	578.6158447265625	117.6678314208984	-244.0441131591797	531.6141357421875	151.5933685302734	-182.5544891357422	278.67529296875	222.1255798339844	-188.9134368896484	229.8041534423828	175.5888061523438	-202.8457489013672	187.0168609619141	227.7327423095703	-183.8887939453125	423.3268432617188	143.8162994384766	-206.6403961181641	422.2371520996094	264.1050720214844	-85.28117370605467	628.8951416015625	412.2960815429688	-16.16226959228514	611.4489135742188	414.1231079101562	-27.0597801208496	543.1326293945312	408.2052917480469	23.89741516113281	350.8120727539062	344.0440673828125	-19.77179718017579	308.3276062011719	390.3041381835938	-20.59794425964356	261.7222290039062	336.6373901367188	-0.2048132568597744	481.8337097167969	401.545654296875	17.31783866882325	459.3019714355469	277.642822265625	-185.8577270507812	973.6665649414062	103.1039733886719	-166.086181640625	979.9512329101562	391.8038024902344	-119.9009933471679	846.8516235351562	261.5440673828125	-119.900993347168	7.341818385859868e-15	261.5440673828125	-4.938502311706543	4.878961563110352	-2.224071741104126	5.02910566329956	-22.95913124084473	-9.734171867370605	3.522827863693239	14.750412940979	-11.9007043838501	7.043590093644105e-16	0	-11.50305557250977	7.139929294586183	6.0209641456604	-27.32541847229004	-12.67148780822754	-30.27139091491699	-38.01496505737305	-0.7681427001953127	-2.310937166213989	2.352088451385498	-1.439066648762365e-16	0	2.350174188613892	0.2668870687484732	-8.92567253112793	6.50281286239624	-0.266887068748474	8.92567253112793	6.50281286239624	0.5758955478668214	3.272984027862549	1.67775821685791	-0.5758955478668216	-3.272984027862549	1.67775821685791	0.4681695103645324	-5.608494281768799	-4.829885482788086	-0.4681695103645319	5.608494281768799	-4.829885482788086	0.920296072959894	-7.660604476928711	89.68700408935547	-2.332753896713263	-26.73554039001465	70.2568359375	-2.383054651048461e-17	-0.3891823589801788	-1.459200125299855e-33	9.358954974281251e-19	0.01528433337807655	5.730707126308867e-35	5.041058476666399e-18	0.0823267325758934	3.086758063882069e-34	6.212059436413034e-18	0.1014506295323372	3.803789352458166e-34	-1.487681715999482e-17	-0.2429568618535995	-9.109423258244036e-34	4.599666291106583e-18	0.07511825114488602	2.816483300274827e-34	1.701141280099507e-18	0.02778174541890621	1.041648611785646e-34	1.701141280099507e-18	0.02778174541890621	1.041648611785646e-34	0.1498305499553685	8.190822601318359	0.420144259929657	nan	nan	nan	4.282815933227544	83.49462127685547	1.527324676513672	nan	nan	nan	-0.2990223169326777	-0.04701171815395353	-8.054593086242676	0.04219744354486464	-0.01799631118774414	0.2257385551929474	0.1712846010923382	-7.455720901489258	-1.500334620475769	0.1149825900793076	0.6248990893363953	0.09304264932870866	-0.9798005223274235	-6.588366031646729	-0.2619331181049347	0.1949371695518495	1.244377493858337	-0.3308063149452209	-0.2292986214160921	-4.123644828796387	-0.3361020982265472	-0.2292986214160921	-4.123644828796387	-0.3361020982265472	281.5635375976562	-59.7708206176758	743.6204223632812	nan	nan	nan	30.06231307983402	34.33219528198242	-466.3651123046875	1.649421493813131e-15	5.070079803466797	22.33886337280273	-20.41506958007811	24.04607772827148	-152.5617523193359	-35.21511459350586	4.729049205780031	-39.20226669311523	-437.1737976074219	-1.080581903457615	204.899673461914	-84.52597045898438	-24.48286056518554	68.27904510498047	147.250503540039	29.40177345275878	354.9840698242188	-147.2505035400391	-29.40177345275878	354.9840698242188	
